<?xml version="1.0" encoding="iso-8859-1"?>
<!-- Generator: Adobe Illustrator 19.0.0, SVG Export Plug-In . SVG Version: 6.00 Build 0)  -->
<svg version="1.1" id="Layer_1" xmlns="http://www.w3.org/2000/svg" xmlns:xlink="http://www.w3.org/1999/xlink" x="0px" y="0px"
	 viewBox="0 0 511.999 511.999" style="enable-background:new 0 0 511.999 511.999;" xml:space="preserve">
<polygon style="fill:#F4B2B0;" points="144.418,349.012 255.998,498.332 367.58,349.012 "/>
<path style="fill:#B3404A;" d="M379.798,342.889c-2.318-4.624-7.047-7.544-12.218-7.544h-55.109L370.92,16.129
	c0.917-5.012-1.029-10.119-5.05-13.247c-4.022-3.13-9.449-3.761-14.084-1.64l-95.787,43.862L160.211,1.24
	c-4.633-2.12-10.06-1.488-14.084,1.64c-4.021,3.13-5.968,8.236-5.05,13.247l46.81,255.655c1.36,7.424,8.478,12.341,15.905,10.981
	c7.424-1.36,12.341-8.48,10.981-15.905L172.69,37.017l69.641,31.889v72.863c0,7.548,6.119,13.667,13.667,13.667
	c7.548,0,13.667-6.119,13.667-13.667V68.907l69.641-31.889l-54.624,298.327H144.418c-5.173,0-9.902,2.921-12.218,7.544
	c-2.317,4.623-1.825,10.16,1.271,14.304l111.582,149.32c2.58,3.452,6.638,5.486,10.949,5.486c4.311,0,8.368-2.034,10.949-5.486
	l111.582-149.32C381.624,353.049,382.116,347.513,379.798,342.889z M255.998,475.5l-84.307-112.821h168.615L255.998,475.5z"/>
<g>
</g>
<g>
</g>
<g>
</g>
<g>
</g>
<g>
</g>
<g>
</g>
<g>
</g>
<g>
</g>
<g>
</g>
<g>
</g>
<g>
</g>
<g>
</g>
<g>
</g>
<g>
</g>
<g>
</g>
</svg>
